<svg height="464pt" viewBox="-64 0 464 464" width="464pt" xmlns="http://www.w3.org/2000/svg"><path d="m336 464h-336l40-112h256zm0 0" fill="#aae5c8"/><path d="m40 352 128 112 128-112zm0 0" fill="#8dc79d"/><path d="m160 400h16v16h-16zm0 0" fill="#6b9777"/><path d="m272 424h16v16h-16zm0 0" fill="#8dc79d"/><path d="m48 424h16v16h-16zm0 0" fill="#8dc79d"/><path d="m160 432h16v32h-16zm0 0" fill="#6b9777"/><path d="m264.863281 250.640625-96.863281 125.359375-96.863281-125.359375c-25.375-32.828125-39.136719-73.148437-39.136719-114.640625 0-75.109375 60.890625-136 136-136s136 60.890625 136 136c0 41.492188-13.761719 81.8125-39.136719 114.640625zm0 0" fill="#e06661"/><path d="m272 136c0 57.4375-46.5625 104-104 104s-104-46.5625-104-104 46.5625-104 104-104 104 46.5625 104 104zm0 0" fill="#fbedbf"/><path d="m112 120h112v72h-112zm0 0" fill="#6cbae5"/><g fill="#4799cf"><path d="m184 192h-32v-24c0-8.835938 7.164062-16 16-16s16 7.164062 16 16zm0 0"/><path d="m240 128h-144v-24l72-24 72 24zm0 0"/></g></svg>