<svg height="512pt" viewBox="0 0 512 512" width="512pt" xmlns="http://www.w3.org/2000/svg"><path d="m511.988281 419.65625-68.851562 68.851562c-15.625 15.625-37.527344 23.492188-64.195313 23.492188-21.542968-.007812-46.171875-5.128906-73.125-15.414062-56.394531-21.546876-117.546875-63.503907-172.222656-118.175782l-.007812-.007812c-54.03125-54.03125-95.753907-114.558594-117.492188-170.449219-23.171875-59.5625-21.269531-108.253906 5.378906-137.078125l.410156-.425781 70.449219-70.449219 137.183594 137.183594-56.152344 56.15625c.316407.488281.648438.976562.984375 1.464844 18.007813 27.0625 39.691406 53.34375 64.5625 78.269531.199219.214843.410156.425781.621094.636719 25.085938 25.085937 51.578125 46.964843 78.875 65.167968l56.402344-56.402344zm0 0" fill="#00a6ff"/><path d="m511.988281 419.65625-68.851562 68.851562c-15.625 15.625-37.527344 23.492188-64.195313 23.492188-21.542968-.007812-46.171875-5.128906-73.125-15.414062-56.394531-21.546876-117.546875-63.503907-172.222656-118.175782l-.007812-.007812 105.324218-105.324219c.199219.210937.410156.421875.621094.636719 25.085938 25.082031 51.578125 46.960937 78.875 65.164062l56.402344-56.402344zm0 0" fill="#006ef5"/><path d="m388.390625 226.691406-29.222656-6.851562c4.449219-18.96875-1.089844-38.484375-14.8125-52.207032-13.722657-13.726562-33.242188-19.265624-52.214844-14.820312l-6.847656-29.21875c29.152343-6.824219 59.167969 1.699219 80.285156 22.816406 21.113281 21.117188 29.644531 51.125 22.8125 80.28125zm0 0" fill="#ff73af"/><path d="m452.734375 243.597656-29.222656-6.839844c9.828125-41.953124-2.433594-85.128906-32.792969-115.488281-30.363281-30.363281-73.542969-42.628906-115.492188-32.796875l-6.839843-29.222656c24.957031-5.84375 51.195312-5.367188 75.875 1.402344 25.488281 6.980468 48.894531 20.613281 67.675781 39.394531 37.761719 37.761719 53.015625 91.425781 40.796875 143.550781zm0 0" fill="#ff73af"/><path d="m174.34375 194.800781-138.410156-138.410156 21.222656-21.222656 137.183594 137.1875-20.980469 20.980469c.320313.488281.652344.976562.984375 1.464843zm0 0" fill="#55fbff"/><path d="m318.410156 338.871094 21.222656-21.21875 137.175782 137.175781-21.222656 21.222656zm0 0" fill="#00d9e0"/><g fill="#ff318e"><path d="m344.355469 167.632812 21.222656-21.222656c21.113281 21.117188 29.644531 51.125 22.8125 80.28125l-29.222656-6.851562c4.449219-18.96875-1.089844-38.484375-14.8125-52.207032zm0 0"/><path d="m390.71875 121.269531 21.222656-21.222656c37.757813 37.761719 53.011719 91.421875 40.792969 143.550781l-29.222656-6.839844c9.828125-41.953124-2.433594-85.128906-32.792969-115.488281zm0 0"/></g></svg>