<svg height="512pt" viewBox="-11 0 512 512" width="512pt" xmlns="http://www.w3.org/2000/svg"><path d="m490.539062 200.679688v311.320312h-490.539062v-311.320312l245.269531-192.351563zm0 0" fill="#ffdf48"/><path d="m490.539062 200.679688v311.320312h-245.097656c-.113281-.648438-.171875-1.320312-.171875-2v-501.671875zm0 0" fill="#ffd400"/><path d="m73.96875 0h342.601562v415.679688h-342.601562zm0 0" fill="#00a6ff"/><path d="m245.269531 0h171.300781v415.679688h-171.300781zm0 0" fill="#006ef5"/><path d="m490.539062 200.789062v311.210938h-490.539062v-311.210938l245.269531 192.351563zm0 0" fill="#ffb74f"/><path d="m490.539062 200.789062v311.210938h-245.097656c-.113281-.648438-.171875-1.320312-.171875-2v-116.859375zm0 0" fill="#ff9a00"/><g fill="#fff"><path d="m159.300781 85h171.9375v30h-171.9375zm0 0"/><path d="m159.300781 144.671875h171.9375v30h-171.9375zm0 0"/><path d="m159.300781 204.328125h134.96875v30h-134.96875zm0 0"/></g><path d="m245.269531 204.328125h49v30h-49zm0 0" fill="#cae8f9"/><path d="m245.269531 85h85.96875v30h-85.96875zm0 0" fill="#cae8f9"/><path d="m245.269531 144.671875h85.96875v30h-85.96875zm0 0" fill="#cae8f9"/></svg>