<svg height="512pt" viewBox="0 0 512.00069 512" width="512pt" xmlns="http://www.w3.org/2000/svg"><path d="m313.941406 62.078125c69.335938 69.332031 69.335938 181.746094 0 251.078125-69.332031 69.335938-181.746094 69.335938-251.078125 0-54.59375-54.59375-66.203125-135.898438-34.820312-201.847656 4.804687-10.09375 10.613281-19.828125 17.429687-29.050782 5.210938-7.046874 11.007813-13.796874 17.390625-20.179687 69.332031-69.335937 181.746094-69.335937 251.078125 0zm0 0" fill="#5ecef4"/><path d="m341.648438 277.347656 147.859374 147.859375c17.539063 17.539063 17.539063 45.976563 0 63.515625-17.539062 17.539063-45.976562 17.539063-63.515624 0l-147.863282-147.863281" fill="#999"/><path d="m78.414062 48.082031v278.046875c64.851563 51.640625 157.46875 51.34375 221.996094-.910156v-275.015625c-64.527344-52.253906-157.144531-53.761719-221.996094-2.121094zm0 0" fill="#fff"/><path d="m124.71875 138.6875h130.273438l-12.773438 58.789062h-117.472656zm0 0" fill="#9cdd05"/><path d="m180.855469 248.121094c0 11.375-9.222657 20.597656-20.597657 20.597656s-20.597656-9.222656-20.597656-20.597656 9.222656-20.597656 20.597656-20.597656 20.597657 9.222656 20.597657 20.597656zm0 0" fill="#fff"/><path d="m264.566406 248.121094c0 11.375-9.222656 20.597656-20.597656 20.597656s-20.597656-9.222656-20.597656-20.597656 9.222656-20.597656 20.597656-20.597656 20.597656 9.222656 20.597656 20.597656zm0 0" fill="#fff"/><path d="m495.921875 418.082031-142.445313-142.445312c14.261719-26.78125 21.832032-56.816407 21.832032-88.019531 0-50.113282-19.515625-97.230469-54.953125-132.664063-33.441407-33.441406-77.863281-52.902344-125.085938-54.800781-12.765625-.511719-25.429687.277344-37.820312 2.285156-.121094.019531-.242188.039062-.363281.058594-.769532.125-1.542969.257812-2.3125.398437-.859376.148438-1.71875.304688-2.578126.464844-.195312.039063-.390624.074219-.589843.113281-29.230469 5.621094-56.855469 18.152344-80.183594 36.726563-.382813.304687-.726563.640625-1.058594.992187-1.144531.921875-2.285156 1.855469-3.414062 2.808594-1.332031 1.125-2.648438 2.261719-3.90625 3.382812-4.160157 3.703126-4.527344 10.074219-.824219 14.230469 1.476562 1.65625 3.382812 2.703125 5.402344 3.136719v239.59375c-46.285156-47.589844-60.144532-117.769531-35.242188-179.484375 2.082032-5.160156-.410156-11.03125-5.574218-13.117187-5.160157-2.082032-11.03125.414062-13.117188 5.574218-28.226562 69.960938-12.003906 149.628906 41.335938 202.964844 35.4375 35.4375 82.550781 54.953125 132.667968 54.953125 31.199219 0 61.238282-7.570313 88.019532-21.832031l142.441406 142.445312c10.386718 10.386719 24.195312 16.105469 38.886718 16.105469 14.6875 0 28.496094-5.71875 38.882813-16.105469 21.4375-21.4375 21.4375-56.324218 0-77.765625zm-140.769531-230.464843c0 30.050781-7.875 58.886718-22.625 84.171874-.203125.304688-.382813.621094-.550782.945313-6.226562 10.515625-13.652343 20.402344-22.203124 29.5v-229.230469c29.296874 31.160156 45.378906 71.648438 45.378906 114.613282zm-161.492188-167.015626c33.9375 1.367188 67.664063 12.878907 95.957032 34.496094v265.230469c-59.035157 45.046875-142.421876 45.402344-201.839844.855469v-267.964844c31.179687-23.191406 68.746094-33.96875 105.882812-32.617188zm288.007813 460.996094c-6.578125 6.578125-15.328125 10.203125-24.632813 10.203125-9.300781 0-18.050781-3.625-24.628906-10.203125l-138.960938-138.960937c9.542969-6.539063 18.554688-13.996094 26.910157-22.351563 8.355469-8.359375 15.816406-17.371094 22.351562-26.910156l138.960938 138.957031c13.582031 13.582031 13.582031 35.683594 0 49.265625zm0 0"/><path d="m374.371094 359.792969c-3.933594-3.933594-10.316406-3.933594-14.25 0-3.9375 3.9375-3.9375 10.316406 0 14.253906l61.976562 61.976563c1.96875 1.96875 4.546875 2.953124 7.125 2.953124s5.15625-.984374 7.125-2.953124c3.9375-3.933594 3.9375-10.316407 0-14.25zm0 0"/><path d="m455.613281 447.324219-.761719.179687c-5.414062 1.277344-8.769531 6.707032-7.492187 12.125 1.097656 4.636719 5.230469 7.761719 9.800781 7.761719.765625 0 1.546875-.085937 2.324219-.269531l.757813-.179688c5.417968-1.28125 8.773437-6.707031 7.492187-12.125-1.277344-5.414062-6.707031-8.773437-12.121094-7.492187zm0 0"/><path d="m42.789062 96.285156c.761719 0 1.535157-.085937 2.3125-.269531l.757813-.175781c5.417969-1.273438 8.78125-6.699219 7.507813-12.117188-1.273438-5.417968-6.695313-8.78125-12.113282-7.507812l-.757812.179687c-5.421875 1.273438-8.78125 6.695313-7.507813 12.113281 1.089844 4.644532 5.230469 7.777344 9.800781 7.777344zm0 0"/><path d="m113.28125 116.59375h.671875v21.535156c-.007813.1875-.027344.375-.027344.5625l.027344 58.789063v50.878906c0 5.566406 4.515625 10.078125 10.078125 10.078125h6.625c4.246094 11.855469 15.589844 20.359375 28.886719 20.359375s24.636719-8.503906 28.886719-20.359375h25.9375c4.246093 11.855469 15.589843 20.359375 28.886718 20.359375 16.914063 0 30.675782-13.761719 30.675782-30.675781 0-16.914063-13.761719-30.675782-30.675782-30.675782-13.472656 0-24.9375 8.734376-29.046875 20.839844h-25.617187c-4.109375-12.105468-15.574219-20.839844-29.046875-20.839844-10.574219 0-19.914063 5.378907-25.433594 13.542969v-23.433593h107.394531c4.742188 0 8.84375-3.304688 9.847656-7.9375l12.777344-58.789063c.644532-2.980469-.089844-6.09375-2.003906-8.464844-1.914062-2.375-4.796875-3.753906-7.847656-3.753906h-120.167969v-22.089844c0-5.566406-4.511719-10.078125-10.078125-10.078125h-10.75c-5.5625 0-10.078125 4.511719-10.078125 10.078125 0 5.5625 4.515625 10.074219 10.078125 10.074219zm129.972656 121.007812c5.800782 0 10.519532 4.71875 10.519532 10.519532 0 5.800781-4.71875 10.519531-10.519532 10.519531-5.796875 0-10.519531-4.71875-10.519531-10.519531 0-5.800782 4.71875-10.519532 10.519531-10.519532zm-83.710937 0c5.800781 0 10.519531 4.71875 10.519531 10.519532 0 5.800781-4.71875 10.519531-10.519531 10.519531s-10.519531-4.71875-10.519531-10.519531c0-5.800782 4.71875-10.519532 10.519531-10.519532zm82.234375-88.839843-8.394532 38.636719h-99.273437v-38.636719zm0 0"/></svg>