<svg height="327pt" viewBox="0 0 327 327.688" width="327pt" xmlns="http://www.w3.org/2000/svg" xmlns:xlink="http://www.w3.org/1999/xlink"><linearGradient id="a"><stop offset="0" stop-color="#00efd1"/><stop offset="1" stop-color="#00acea"/></linearGradient><linearGradient id="b" gradientUnits="userSpaceOnUse" x1="162.651" x2="162.651" xlink:href="#a" y1="-78.489" y2="404.708"/><linearGradient id="c" gradientUnits="userSpaceOnUse" x1="164.028" x2="164.028" xlink:href="#a" y1="-78.489" y2="404.708"/><path d="m228.550781 104.230469c-1.84375-1.910157-4.367187-3.011719-7.019531-3.058594-2.648438-.035156-5.207031.96875-7.125 2.796875l-74.824219 72.09375-28.699219-27.628906c-3.980468-3.828125-10.3125-3.707032-14.140624.269531l-23.578126 24.5c-3.828124 3.980469-3.707031 10.3125.269532 14.140625l59.230468 57.011719c3.871094 3.730469 10 3.730469 13.871094 0l105.339844-101.5c3.976562-3.832031 4.09375-10.164063.261719-14.140625zm-88.957031 119.03125-45.085938-43.402344 9.707032-10.085937 28.433594 27.375c3.875 3.726562 10.003906 3.726562 13.875 0l74.5625-71.835938 9.710937 10.082031zm0 0" fill="url(#b)"/><path d="m164.027344 0c-90.253906 0-163.683594 73.582031-163.683594 163.847656s73.421875 163.839844 163.683594 163.839844h.011718c90.253907 0 163.683594-73.582031 163.683594-163.847656s-73.433594-163.839844-163.695312-163.839844zm.003906 307.6875h-.003906c-79.226563 0-143.683594-64.613281-143.683594-143.847656 0-79.238282 64.457031-143.761719 143.695312-143.761719 79.238282 0 143.679688 64.570313 143.679688 143.808594s-64.457031 143.800781-143.6875 143.800781zm0 0" fill="url(#c)"/></svg>